<svg xmlns="http://www.w3.org/2000/svg" xml:space="preserve" style="enable-background:new 0 0 24 24" viewBox="0 0 24 24" id="pothole">
  <g id="Layer_2">
    <g>
      <path d="M12 12c.552246 0 1-.447754 1-1V7c0-.552246-.447754-1-1-1s-1 .447754-1 1v4C11 11.552246 11.447754 12 12 12zM12.032104 13.000488c-.551941-.0177-1.013855.415405-1.031555.967407-.017761.552002.415344 1.013855.967346 1.031555.552002.017761 1.013855-.415344 1.031616-.967346C13.017212 13.480103 12.584106 13.01825 12.032104 13.000488z"></path>
      <path d="M3,18.5c0,2.762695,5.657227,3.5,9,3.5s9-0.737305,9-3.5c0-1.64679-2.015015-2.510437-3.919556-2.958923
			c1.028442-1.382385,1.737366-2.988159,2.073364-4.733459c0.083984-0.464355,0.126465-0.914551,0.126465-1.337891
			c0-1.921387-0.777344-3.80127-2.133301-5.156738C15.771973,2.9375,13.943848,2.180176,12,2.180176
			S8.228516,2.9375,6.853027,4.312988c-1.708008,1.708008-2.45752,4.139648-2.005859,6.501465
			c0.326721,1.739075,1.03833,3.350342,2.06665,4.727844C5.010986,15.991211,3,16.854858,3,18.5z M8.26709,5.727051
			C9.264648,4.729492,10.590332,4.180176,12,4.180176s2.735352,0.549316,3.73291,1.546875
			c0.983398,0.983398,1.547363,2.347656,1.547363,3.742676c0,0.304688-0.031738,0.635254-0.092285,0.971191
			c-0.375488,1.949219-1.313965,3.695801-2.75,5.087402c-0.114746,0.123535-0.239258,0.23877-0.364258,0.347168l-0.694336,0.604004
			c-0.785645,0.692871-1.97168,0.691895-2.763184-0.003906l-0.691406-0.601562
			c-0.122009-0.105591-0.244751-0.219482-0.358276-0.34137c-0.014343-0.014893-0.026306-0.025696-0.041138-0.041443
			c-1.411133-1.365723-2.349121-3.11084-2.712891-5.049316C6.484375,8.728516,7.02832,6.96582,8.26709,5.727051z M8.48584,17.270996
			c0.04248,0.038574,0.085449,0.07666,0.12793,0.113281l0.685547,0.596191c1.541016,1.356445,3.862793,1.355469,5.396973,0.003906
			l0.688477-0.598633c0.043457-0.037598,0.086426-0.075684,0.129395-0.114746
			c2.178711,0.349609,3.230469,0.941406,3.458496,1.229492C18.60498,18.977051,16.243652,20,12,20
			s-6.60498-1.022949-6.972656-1.499512C5.255371,18.212402,6.307129,17.620605,8.48584,17.270996z"></path>
    </g>
  </g>
</svg>
